# xmcd CD database file
#
# Track frame offsets:
#	150
#	19114
#	45812
#	60266
#	84229
#	121583
#	137223
#	152857
#	169012
#	181582
#	199434
#	214497
#	231629
#	250009
#	260307
#	277015
#	287649
#	311400
#	331518
#
# Disc length: 4594 seconds
#
# Revision: 0
# Processed by: cddbd v1.5.1PL2 Copyright (c) Steve Scherf et al.
# Submitted via: CDex 1.51
#
DISCID=0011f013
DTITLE=Ray Perez - Exitos De Ray Perez
DYEAR=1900
DGENRE=Salsa
TTITLE0=Lamento Del Campesino
TTITLE1=Canto A Un Sonero
TTITLE2=Pa' 123
TTITLE3=Emae Emae
TTITLE4=Trigueño Cintura
TTITLE5=Rompelo
TTITLE6=Rencor
TTITLE7=Moliendo Cafe
TTITLE8=Hoculele I
TTITLE9=Fui Tu Amante
TTITLE10=No Salgas De Tu Barrio
TTITLE11=Santa
TTITLE12=Yo Canto Guaguanco
TTITLE13=Pa La Cola
TTITLE14=Pa Puerto Rico
TTITLE15=Hoculele Naideño
TTITLE16=Anabacoa
TTITLE17=Alacran
TTITLE18=Yo Sin Ti
EXTD=
EXTT0=
EXTT1=
EXTT2=
EXTT3=
EXTT4=
EXTT5=
EXTT6=
EXTT7=
EXTT8=
EXTT9=
EXTT10=
EXTT11=
EXTT12=
EXTT13=
EXTT14=
EXTT15=
EXTT16=
EXTT17=
EXTT18=
PLAYORDER=
